<svg id="Layer_1" data-name="Layer 1" xmlns="http://www.w3.org/2000/svg" viewBox="0 0 1599.32 334.98"><defs><style>.cls-1{fill:#231f20;}.cls-2{fill:#040404;}.cls-2,.cls-3{fill-rule:evenodd;}.cls-3{fill:#fff;}</style></defs><path class="cls-1" d="M122,139.76H80.84v76.31c0,8,2.88,10.86,18.52,11.18,5.43.32,8,2.55,8,6.7,0,4.79-2.55,7-8,7-2.23,0-7-.32-14-.64s-12.77-.64-17.56-.64c-3.19,0-7.34.32-12.77.64-5.11.32-8.3.64-9.26.64-4.79,0-7.34-2.24-7.34-6.39,0-3.83,2.55-6.38,7.66-7.34,6.71-1.28,8.62-3.52,8.62-11.18V49.4c0-7.66-1.91-9.9-8.62-11.18-5.11-.95-7.66-3.51-7.66-7.34,0-4.15,2.55-6.39,7.34-6.39,1,0,4.15.32,9.26.64,5.43.32,9.58.64,12.77.64,14.69,0,29.38-.32,44.39-1s22.67-.95,23.62-.95c22,0,34.49,7,34.49,27.45,0,16.29-8.63,22-11.82,22-2.87,0-4.15-1.92-4.15-5.43,0-19.48-7.34-29.7-26.5-29.7-9.9,0-21.71.32-34.8,1C85,39.5,80.84,43,80.84,53.55v72.16h42.79c7.66,0,12.45-2.55,14.37-8,2.23-5.43,4.79-8.3,8-8.3,3.83,0,5.75,2.55,5.75,7.34,0,1.6-1.28,11.5-1.28,17.88,0,17.24-6.07,22-9.9,22-2.87,0-4.15-1.91-4.15-5.43Q136.4,139.76,122,139.76Z"/><path class="cls-1" d="M377.78,194.36c0,20.75,3.52,31.29,18.85,31.29,6.06,0,8.94,1.92,8.94,6.07,0,6.06-7.67,12.13-17.89,12.13-19.47,0-33.2-14.37-33.2-38.31-1.28,2.23-2.56,4.47-11.82,13.41a109.79,109.79,0,0,1-15,11.49c-10.54,6.7-30.34,13.41-50.77,13.41q-31.62,0-50.77-13.41c-12.45-9.26-18.84-25.23-18.84-48.53V58.34c0-8-4.15-10.86-13.09-13.09-5.43-1.6-8.3-4.15-8.3-7.67,0-4.46,2.55-6.7,7.66-7a56.67,56.67,0,0,0,21.07-4.79c6.39-2.87,10.22-4.15,11.5-4.15,4.15,0,7.34,3.19,7.34,8.3V175.2c0,34.81,16.93,52.05,50.45,52.05,18.2,0,34.17-5.75,47.58-16.93q20.11-17.23,20.11-44.06V58.34c0-8-4.15-10.86-13.09-13.09-5.43-1.6-8.3-4.15-8.3-7.67,0-4.46,2.55-6.7,7.66-7A56.72,56.72,0,0,0,359,25.77c6.38-2.87,10.21-4.15,11.49-4.15,4.15,0,7.34,3.19,7.34,8.3Z"/><path class="cls-1" d="M596.82,214.79c0,15.65-13.09,27.46-29.38,27.46-15,0-24.59-4.47-30.65-16A88.76,88.76,0,0,1,530.72,211c-1.27-4.79-2.87-11.81-4.47-21.07-2.55-14-5.74-22.35-13.73-32.25S489.85,143,469.42,143h-4.16v73.12c0,3.51,1,6.07,2.88,7.66,2.24,1.6,6.07,2.56,11.5,3.52s8.3,3.19,8.3,7.34-2.56,6.39-8,6.39c-2.24,0-7-.32-13.74-.64s-11.17-.64-14.05-.64c-3.19,0-7.34.32-12.76.64-5.11.32-8.31.64-9.27.64-4.79,0-7.34-2.24-7.34-6.39,0-3.83,2.55-6.38,7.66-7.34,6.71-1.28,8.62-3.52,8.62-11.18V50.68c0-7.67-2.55-10.86-9.25-12.14-4.79-1-7-3.19-7-7.34,0-4.47,3.83-6.71,11.18-6.71,4.79,0,15.32,1.28,24.26,1.28,3.83,0,10.54-.64,20.44-1.91a164.29,164.29,0,0,1,26.5-2.24c42.15,0,64.5,21.71,64.5,55.88,0,33.2-20.12,54-51.73,61.3,18.84,6.71,31,22,36.4,46.62,1.28,5.43,3.51,18.52,4.47,23.63,1.92,8,6.39,17.88,14.69,16.28,5.43,0,8.94-3.19,10.54-9.26s4.15-8.94,7-8.94Q596.81,207.13,596.82,214.79ZM465.26,130.18h24.59c31.93,0,53.64-16,53.64-47.89C543.49,52,525.93,35,495.6,35c-8.62,0-12.45,0-19.8,2.24-6.7,1.59-10.54,7-10.54,14.68Z"/><path class="cls-1" d="M616,244.17c-7.38,0-11.23-2.24-11.23-6.73,0-4.17,2.25-6.42,7.06-7.38,6.73-1.28,9.3-4.49,9.3-12.18V53c0-7.7-2.57-10.9-9.3-12.19-4.81-1-7.06-3.21-7.06-7.37,0-4.49,3.85-6.74,11.23-6.74,4.81,0,17,1.29,26,1.29q8.18,0,27.9-1.93a264.72,264.72,0,0,1,30.47-2.24c35.92,0,56.44,19.24,56.44,47.14,0,32.71-25.65,49.71-36.56,54.84L716,127.76c2.57,0,6.1,0,17.64,4.17a51.37,51.37,0,0,1,15.07,7.69c9,6.42,17.64,20.53,17.64,38.49,0,18.6-7.37,34.64-21.8,48.43s-32.4,20.52-53.88,20.52a181.86,181.86,0,0,1-29.83-2.24A179.51,179.51,0,0,0,640,242.89C632.63,242.89,621.09,244.17,616,244.17Zm123.79-56.12c0-13.79-5.14-24.69-15.08-33.35s-22.45-13.15-37.84-13.15c-14.11,0-18.92-1-18.92-6.09,0-6.42,5.45-7.38,18-8.34,26.62-1.6,43.93-15.39,43.93-42.33,0-29.83-21.16-47.15-51.95-47.15-5.77,0-10.58.33-14.11.65-7.38,1-16.36,6.41-16.36,16.67V199c0,24.37,13.8,34.31,40.73,34.31C720.18,233.27,739.75,217.88,739.75,188.05Z"/><path class="cls-1" d="M1393.87,51.76c0-7.7-1.93-9.95-8.66-11.23-5.13-1-7.7-3.53-7.7-7.37,0-4.17,2.57-6.42,7.38-6.42,1,0,4.17.32,9.3.64,5.45.32,9.62.65,12.83.65s7.37-.33,12.5-.65c5.46-.32,8.66-.64,9.63-.64,4.8,0,7.37,2.25,7.37,6.42,0,3.84-2.57,6.41-7.69,7.37-6.74,1.28-8.66,3.53-8.66,11.23v63.82L1495.53,55c3.85-2.88,5.77-6.09,5.77-9,0-3.52-1.92-5.77-6.09-6.73-5.13-1-8.66-2.25-8.66-6.73,0-3.86,2.57-5.78,7.38-5.78,1.6,0,6.09.32,13.47.64s12.18.65,15.07.65c4.81,0,16.35-1.29,21.49-1.29,4.81,0,7.37,1.92,7.37,5.45,0,2.25-.32,3.53-1.92,4.81-1,.32-5.45,2.89-7.38,2.89a57.48,57.48,0,0,0-16,8l-6.74,4.81c-3.53,2.56-9.62,8.34-10.58,8.66l-64.46,51c60.61,5.13,61.25,111.6,93.64,111.92,6.74,0,11.23-3.2,12.83-9.62,2.25-7.38,3.53-9.94,7.06-9.94,4.49,0,6.73,3.53,6.41,10.9-1,17.64-12.83,30.47-31.11,30.47-22.13,0-38.16-18.28-47.46-40.41-13.15-32.39-25.34-74.08-56.76-74.08-1.93,0-4.82.32-8.66.64v86.91c0,7.7,1.92,9.94,8.66,11.22,5.12,1,7.69,3.53,7.69,7.38,0,4.17-2.57,6.41-7.37,6.41-1,0-4.17-.32-9.63-.64-5.13-.32-9.3-.64-12.5-.64s-7.38.32-12.83.64c-5.13.32-8.34.64-9.3.64-4.81,0-7.38-2.24-7.38-6.41,0-3.85,2.57-6.41,7.7-7.38,6.73-1.28,8.66-3.52,8.66-11.22Z"/><path class="cls-2" d="M799.27,136.78c.65-47.33,38.45-84.09,85.68-83.31,46.07.76,82.46,38.89,81.83,85.74-.63,45.72-39,82.75-84.95,82S798.64,182.53,799.27,136.78Zm109.47,1.74c13-.11,23-10.15,23-22.86a23,23,0,1,0-23,22.86Z"/><path class="cls-2" d="M1353.77,137.87c-.08,45.89-37.58,83.31-83.6,83.43-46.2.13-83.88-37.5-83.93-83.8a83.67,83.67,0,0,1,84.3-84C1316.85,53.64,1353.85,91.16,1353.77,137.87Zm-58.53.66c13.33.05,23.55-10,23.47-23.08a22.73,22.73,0,0,0-22.55-22.6c-13.32-.15-23.47,9.86-23.41,23.08A22.61,22.61,0,0,0,1295.24,138.53Z"/><path class="cls-2" d="M1151.6,317.26c-31.5-.46-52-17.74-67-43.6-.65-1.12-1-2.52-2.88-3.22-2.19,3.48-4.33,7.08-6.68,10.54-12.67,18.63-28.77,32.3-52,35.41-4,.54-8.09.62-12.14.91-11.43-.55-22.67-2.12-33.47-6.17C955.74,303,940.7,288,931.43,267c-.91-2.06-3.21-5,.37-6.43,3.42-1.34,3.92,2.3,4.82,4.43,18.85,44.39,66.21,52.24,95.67,43.63,21-6.15,33.9-22.09,44-40.59,1.63-3-.56-2.95-2.4-3.59a73.8,73.8,0,0,1-36.06-26.17c-7.17-9.7-10.54-20.49-8.55-32.73,1.88-11.5,8.69-18.7,19.7-20.88a160.42,160.42,0,0,1,64,0c18.93,3.91,27.07,21.18,19.62,40.78s-22.38,31.58-41.42,38.81c-3.76,1.42-4.41,2.26-2.37,5.75,10.29,17.66,22.93,33,43.45,38.72,30.29,8.46,75.76-.35,94.49-42,1.11-2.47,1.35-7.64,5.32-6.05,4.81,1.93.74,5.81-.42,8.28-14.43,30.63-39.53,45.29-72.53,47.92C1156.62,317.1,1154.11,317.14,1151.6,317.26Z"/><path class="cls-3" d="M908.74,138.52a22.83,22.83,0,1,1,23-22.86C931.77,128.37,921.69,138.41,908.74,138.52Z"/><path class="cls-3" d="M1295.24,138.53a22.61,22.61,0,0,1-22.49-22.6c-.06-13.22,10.09-23.23,23.41-23.08a22.73,22.73,0,0,1,22.55,22.6C1318.79,128.53,1308.57,138.58,1295.24,138.53Z"/></svg>