<svg id="Layer_1" data-name="Layer 1" xmlns="http://www.w3.org/2000/svg" viewBox="0 0 720 537.19"><defs><style>.cls-1{fill:#231f20;}.cls-2{fill:#040404;}.cls-2,.cls-3{fill-rule:evenodd;}.cls-3{fill:#fff;}</style></defs><path class="cls-1" d="M135.36,165H87.26v89.11c0,9.32,3.36,12.68,21.62,13.05,6.34.37,9.32,3,9.32,7.83,0,5.59-3,8.2-9.32,8.2-2.61,0-8.2-.37-16.4-.74s-14.91-.75-20.51-.75c-3.73,0-8.57.38-14.91.75-6,.37-9.69.74-10.81.74-5.59,0-8.58-2.61-8.58-7.45,0-4.48,3-7.46,8.95-8.58,7.83-1.49,10.07-4.1,10.07-13.05V59.5c0-9-2.24-11.56-10.07-13-6-1.12-8.95-4.1-8.95-8.58,0-4.84,3-7.45,8.58-7.45,1.12,0,4.85.37,10.81.74,6.34.38,11.18.75,14.91.75,17.16,0,34.3-.37,51.83-1.12s26.47-1.12,27.59-1.12c25.72,0,40.26,8.2,40.26,32.06,0,19-10.06,25.73-13.79,25.73-3.35,0-4.85-2.24-4.85-6.34,0-22.74-8.57-34.67-30.94-34.67-11.56,0-25.36.37-40.64,1.12-9.32.37-14.17,4.47-14.17,16.78v84.26h50c8.95,0,14.54-3,16.78-9.32,2.61-6.34,5.59-9.7,9.32-9.7,4.47,0,6.71,3,6.71,8.58,0,1.86-1.49,13.42-1.49,20.88,0,20.13-7.08,25.72-11.56,25.72-3.35,0-4.85-2.23-4.85-6.34Q152.13,165,135.36,165Z"/><path class="cls-1" d="M434,228.77c0,24.23,4.11,36.54,22,36.54,7.08,0,10.43,2.23,10.43,7.08,0,7.08-8.95,14.17-20.87,14.17-22.75,0-38.78-16.78-38.78-44.74-1.49,2.61-3,5.22-13.8,15.66a128.19,128.19,0,0,1-17.52,13.42c-12.3,7.83-35.42,15.66-59.28,15.66q-36.92,0-59.28-15.66c-14.54-10.81-22-29.46-22-56.67V69.94c0-9.32-4.85-12.68-15.29-15.29-6.34-1.86-9.69-4.85-9.69-8.95,0-5.22,3-7.83,9-8.2a66.12,66.12,0,0,0,24.6-5.59c7.46-3.36,11.94-4.85,13.43-4.85,4.85,0,8.57,3.73,8.57,9.7V206.4c0,40.64,19.76,60.77,58.91,60.77,21.26,0,39.9-6.71,55.55-19.76q23.49-20.13,23.49-51.45v-126c0-9.32-4.84-12.68-15.28-15.29-6.34-1.86-9.7-4.85-9.7-8.95,0-5.22,3-7.83,8.95-8.2A66.18,66.18,0,0,0,412,31.91c7.45-3.36,11.93-4.85,13.42-4.85,4.85,0,8.57,3.73,8.57,9.7Z"/><path class="cls-1" d="M689.76,252.63c0,18.27-15.29,32.07-34.3,32.07-17.53,0-28.71-5.23-35.8-18.65a104,104,0,0,1-7.08-17.89c-1.49-5.6-3.36-13.8-5.22-24.61-3-16.41-6.71-26.1-16-37.66S564.86,168.74,541,168.74h-4.84v85.38q0,6.15,3.35,8.95c2.61,1.86,7.09,3,13.43,4.1s9.69,3.73,9.69,8.58-3,7.45-9.32,7.45c-2.61,0-8.2-.37-16-.74s-13-.75-16.4-.75c-3.73,0-8.57.38-14.91.75-6,.37-9.7.74-10.81.74-5.6,0-8.58-2.61-8.58-7.45,0-4.48,3-7.46,8.95-8.58,7.83-1.49,10.07-4.1,10.07-13.05V61c0-9-3-12.68-10.82-14.17-5.59-1.12-8.2-3.73-8.2-8.57,0-5.22,4.47-7.83,13.05-7.83,5.59,0,17.89,1.49,28.34,1.49,4.47,0,12.3-.75,23.86-2.24a192.67,192.67,0,0,1,30.94-2.61c49.22,0,75.32,25.35,75.32,65.25,0,38.77-23.49,63-60.4,71.58,22,7.83,36.16,25.73,42.5,54.44,1.49,6.34,4.1,21.62,5.22,27.59,2.24,9.32,7.46,20.88,17.15,19,6.34,0,10.44-3.72,12.31-10.81s4.84-10.44,8.2-10.44Q689.76,243.68,689.76,252.63Zm-153.61-98.8h28.71c37.28,0,62.63-18.65,62.63-55.93,0-35.42-20.5-55.18-55.92-55.18-10.07,0-14.54,0-23.12,2.61-7.83,1.86-12.3,8.2-12.3,17.15Z"/><path class="cls-1" d="M41.87,461.05c-4.9,0-7.46-1.5-7.46-4.48,0-2.77,1.49-4.27,4.69-4.91,4.48-.85,6.18-3,6.18-8.1V334c0-5.12-1.7-7.25-6.18-8.1-3.2-.64-4.69-2.14-4.69-4.91,0-3,2.56-4.48,7.46-4.48,3.2,0,11.3.86,17.27.86q5.45,0,18.56-1.28A174.51,174.51,0,0,1,98,314.55c23.88,0,37.53,12.79,37.53,31.34,0,21.76-17.06,33.06-24.31,36.47l-2.77,1.28c1.7,0,4,0,11.72,2.77a34.3,34.3,0,0,1,10,5.12c6,4.26,11.72,13.65,11.72,25.59,0,12.37-4.9,23-14.5,32.2S105.85,463,91.56,463a121.12,121.12,0,0,1-19.83-1.49,119.42,119.42,0,0,0-13.86-1.29C53,460.19,45.28,461.05,41.87,461.05Zm82.32-37.32a28,28,0,0,0-10-22.18c-6.61-5.76-14.92-8.74-25.16-8.74-9.38,0-12.58-.64-12.58-4.06,0-4.26,3.62-4.9,11.94-5.54,17.7-1.06,29.22-10.23,29.22-28.15,0-19.83-14.08-31.35-34.55-31.35-3.84,0-7,.22-9.39.43-4.9.64-10.87,4.27-10.87,11.09V431c0,16.21,9.17,22.82,27.08,22.82C111.18,453.8,124.19,443.56,124.19,423.73Z"/><path class="cls-1" d="M585.75,333.1c0-5.12-1.29-6.61-5.76-7.46-3.42-.64-5.12-2.35-5.12-4.91,0-2.77,1.7-4.27,4.9-4.27.64,0,2.77.22,6.19.43,3.62.22,6.39.43,8.53.43s4.9-.21,8.31-.43c3.63-.21,5.76-.43,6.4-.43,3.2,0,4.91,1.5,4.91,4.27,0,2.56-1.71,4.27-5.12,4.91-4.48.85-5.76,2.34-5.76,7.46v42.44l50.11-40.31c2.56-1.92,3.84-4.05,3.84-6,0-2.34-1.28-3.84-4-4.48-3.41-.64-5.76-1.49-5.76-4.47,0-2.57,1.71-3.85,4.91-3.85,1.06,0,4.05.22,9,.43s8.11.43,10,.43c3.2,0,10.87-.86,14.28-.86,3.2,0,4.91,1.28,4.91,3.63,0,1.5-.21,2.35-1.28,3.2-.64.21-3.63,1.92-4.91,1.92a38.21,38.21,0,0,0-10.66,5.33l-4.48,3.2c-2.34,1.7-6.39,5.54-7,5.76l-42.87,33.9c40.31,3.42,40.74,74.21,62.27,74.43,4.48,0,7.47-2.13,8.53-6.4,1.5-4.91,2.35-6.61,4.69-6.61,3,0,4.48,2.34,4.27,7.25-.64,11.73-8.53,20.26-20.69,20.26-14.71,0-25.37-12.16-31.56-26.87C638,413.92,629.89,386.2,609,386.2c-1.28,0-3.2.21-5.76.42v57.79c0,5.12,1.28,6.62,5.76,7.47,3.41.64,5.12,2.34,5.12,4.9,0,2.77-1.71,4.27-4.91,4.27-.64,0-2.77-.21-6.4-.43-3.41-.21-6.18-.43-8.31-.43s-4.91.22-8.53.43c-3.42.22-5.55.43-6.19.43-3.2,0-4.9-1.5-4.9-4.27,0-2.56,1.7-4.26,5.12-4.9,4.47-.85,5.76-2.35,5.76-7.47Z"/><path class="cls-2" d="M163.76,385.06a50.47,50.47,0,0,1,51.68-50.26c27.79.46,49.74,23.46,49.36,51.72-.38,27.57-23.5,49.91-51.24,49.47S163.39,412.65,163.76,385.06Zm66,1A13.77,13.77,0,1,0,216,372.36,13.7,13.7,0,0,0,229.79,386.1Z"/><path class="cls-2" d="M565.19,385.71A50.52,50.52,0,1,1,515,334.8,50.6,50.6,0,0,1,565.19,385.71Zm-35.3.4a13.78,13.78,0,1,0-13.57-13.63A13.73,13.73,0,0,0,529.89,386.11Z"/><path class="cls-3" d="M229.79,386.1a13.77,13.77,0,1,1,13.86-13.78A13.59,13.59,0,0,1,229.79,386.1Z"/><path class="cls-3" d="M529.89,386.11a13.78,13.78,0,1,1,14.16-13.92A13.65,13.65,0,0,1,529.89,386.11Z"/><path class="cls-1" d="M400.53,462.25l1-1,1.23-1.24c.48-.5,1.12-1,1.81-1.56l1.09-.91c.39-.32.83-.59,1.26-.91.9-.61,1.82-1.34,2.91-2a50.11,50.11,0,0,1,7.46-3.88l2.18-.92,2.3-.84c1.55-.61,3.21-1.06,4.9-1.59s3.45-.95,5.25-1.38,3.67-.79,5.57-1.08c3.8-.65,7.75-1.1,11.78-1.38s8.13-.38,12.22-.3,8.19.32,12.2.71,7.93,1,11.71,1.56,7.41,1.43,10.81,2.33,6.59,1.82,9.5,2.76,5.53,2,7.81,3,4.22,2,5.79,2.81a40.18,40.18,0,0,1,3.56,2.13l1.22.79a.1.1,0,0,1,0,.14.1.1,0,0,1-.13,0l-1.27-.72c-.41-.23-.91-.53-1.52-.84l-2.12-1.05c-1.6-.76-3.56-1.63-5.87-2.51s-4.94-1.77-7.84-2.66-6.09-1.71-9.49-2.46-7-1.42-10.75-2-7.64-1.07-11.61-1.39-8-.55-12.06-.62-8.1,0-12.07.22-7.89.61-11.63,1.2a104.66,104.66,0,0,0-10.72,2.16c-1.67.47-3.32.87-4.86,1.42l-2.29.75-2.16.84c-1.43.52-2.74,1.15-4,1.73s-2.4,1.22-3.49,1.79-2,1.23-2.95,1.79c-.45.29-.89.55-1.29.84l-1.11.83c-.7.54-1.36,1-1.87,1.44l-1.31,1.16-1.09,1a.1.1,0,0,1-.14,0,.09.09,0,0,1,0-.13Z"/><path class="cls-1" d="M408.72,467.18l2.81-2a30.64,30.64,0,0,1,3.32-2.22l2.13-1.26a17.89,17.89,0,0,1,2.43-1.26l2.71-1.24c.48-.21.95-.44,1.44-.64l1.52-.54,3.18-1.13c1.09-.38,2.25-.6,3.41-.91a72.8,72.8,0,0,1,7.23-1.44c1.24-.19,2.51-.28,3.77-.42l1.9-.2,1.91-.08c1.27,0,2.55-.08,3.82-.06l3.78.14c1.26,0,2.49.2,3.72.29s2.43.2,3.61.41,2.34.33,3.47.52l3.29.71,1.58.34,1.51.4,2.87.78c1.82.57,3.48,1.1,4.92,1.66s2.7,1,3.71,1.49l3.17,1.45s0,0,0,.06a0,0,0,0,1-.06,0l-3.22-1.31c-1-.4-2.3-.81-3.75-1.33s-3.13-.94-4.94-1.48l-2.87-.7-1.51-.37-1.57-.3-3.28-.62-3.45-.47c-1.17-.19-2.37-.27-3.58-.38s-2.44-.25-3.68-.25l-3.75-.11c-1.25,0-2.51.07-3.77.1l-1.89.06-1.88.18c-1.25.13-2.5.21-3.72.38-2.45.43-4.88.72-7.16,1.36-1.14.3-2.29.52-3.37.86l-3.17,1-1.52.5c-.49.19-1,.4-1.44.6L419.66,461a21.26,21.26,0,0,0-2.44,1.18l-2.15,1.16a30.82,30.82,0,0,0-3.4,2.06l-2.9,1.92a.05.05,0,0,1-.07,0A.07.07,0,0,1,408.72,467.18Z"/><path class="cls-1" d="M408.72,471.63l.94-.36c.62-.22,1.52-.59,2.68-1l1.91-.68c.7-.26,1.5-.4,2.33-.63l2.69-.68c.47-.12,1-.22,1.47-.34l1.55-.21a67.3,67.3,0,0,1,6.85-.73l3.77-.18c1.29,0,2.6.09,3.93.14s2.7.11,4.07.3,2.75.33,4.14.52,2.76.53,4.16.8l2.09.41,2.07.54c1.37.39,2.75.73,4.1,1.15l4,1.34c1.35.41,2.61,1,3.89,1.49s2.53,1,3.72,1.59,2.4,1.09,3.55,1.67,2.23,1.2,3.3,1.78c2.15,1.12,4.08,2.39,5.91,3.46s3.39,2.24,4.77,3.26,2.57,1.94,3.53,2.72,1.67,1.44,2.17,1.87l.76.66a.1.1,0,0,1,0,.14.09.09,0,0,1-.13,0l-3.12-2.25c-1-.7-2.26-1.5-3.68-2.44s-3.09-1.89-4.9-3-3.81-2.14-6-3.16c-1.08-.52-2.18-1.09-3.32-1.61l-3.54-1.55c-1.19-.55-2.45-1-3.71-1.47s-2.52-1-3.84-1.4l-3.95-1.28c-1.33-.4-2.69-.73-4-1.1l-2-.54-2.05-.43c-1.37-.27-2.72-.58-4.07-.82-2.73-.34-5.4-.86-8-.95-1.3-.09-2.59-.2-3.85-.26l-3.69,0a66.41,66.41,0,0,0-6.75.42l-1.53.14-1.45.26-2.66.48c-.84.16-1.63.25-2.34.46l-2,.54-3.71,1a.1.1,0,0,1-.06-.19Z"/><path class="cls-1" d="M408.69,482.54l.81-.49a20.67,20.67,0,0,1,2.36-1.32,35.4,35.4,0,0,1,3.94-1.65l2.52-.77c.9-.21,1.85-.43,2.85-.63a41,41,0,0,1,6.55-.7,46.21,46.21,0,0,1,7.37.26c1.26.17,2.56.31,3.85.56.65.12,1.31.21,1.95.37l1.95.47a68.37,68.37,0,0,1,7.73,2.53,64.26,64.26,0,0,1,7.31,3.58,50.74,50.74,0,0,1,6.53,4.41,46.21,46.21,0,0,1,5.46,5A37.44,37.44,0,0,1,474,499.3a31,31,0,0,1,2.75,4.84,20.4,20.4,0,0,1,.89,2.14,16.68,16.68,0,0,1,.61,1.86,18.66,18.66,0,0,1,.62,2.65c.11.61.18.94.18.94h0a.16.16,0,0,1-.12.18.16.16,0,0,1-.17-.1l-.31-.89a21.63,21.63,0,0,0-.95-2.47,18,18,0,0,0-.8-1.71c-.33-.6-.63-1.29-1.07-1.95a36.47,36.47,0,0,0-3-4.38,45,45,0,0,0-4.27-4.65,54,54,0,0,0-5.45-4.48,55.69,55.69,0,0,0-6.38-4,61.11,61.11,0,0,0-7-3.32,64.72,64.72,0,0,0-7.37-2.52,65.7,65.7,0,0,0-7.37-1.58,56.71,56.71,0,0,0-7-.6,51,51,0,0,0-6.31.23c-1,.11-1.9.26-2.79.38l-2.48.49c-1.54.4-2.88.76-4,1.15s-1.91.73-2.48,1l-.87.36a.14.14,0,0,1-.19-.08.14.14,0,0,1,.06-.18Z"/><path class="cls-1" d="M334.65,460.74l-1.15-.9-1.37-1.08c-.55-.43-1.22-.83-1.94-1.33l-1.14-.78c-.4-.26-.86-.5-1.31-.77-.93-.51-1.88-1.13-3-1.63s-2.24-1.13-3.53-1.61-2.57-1.12-4-1.59l-2.16-.76-2.28-.69c-1.53-.5-3.18-.84-4.83-1.27-3.36-.75-6.92-1.39-10.63-1.89s-7.59-.79-11.51-1.06-7.95-.29-11.95-.18-8,.23-11.95.58-7.81.74-11.54,1.24-7.32,1.09-10.7,1.78-6.57,1.42-9.49,2.18-5.56,1.57-7.88,2.36-4.33,1.54-6,2.22q-1.2.54-2.16.93c-.63.28-1.15.55-1.57.75l-1.32.64h0a.1.1,0,0,1-.13,0,.11.11,0,0,1,0-.13l1.27-.72c.42-.23.92-.54,1.53-.86l2.12-1.06c1.6-.76,3.57-1.64,5.88-2.53s4.95-1.79,7.85-2.69,6.1-1.74,9.5-2.49,7-1.45,10.76-2.07,7.66-1.1,11.64-1.43,8-.58,12.08-.66,8.12,0,12.1.26,7.9.63,11.66,1.24a105.5,105.5,0,0,1,10.74,2.19c1.68.49,3.33.89,4.87,1.45l2.3.76,2.17.85c1.42.53,2.74,1.16,4,1.75s2.4,1.23,3.5,1.81,2,1.24,2.95,1.8c.45.3.9.55,1.29.84l1.12.85c.7.55,1.37,1,1.88,1.45l1.3,1.17,1.09,1a.1.1,0,0,1,0,.14.09.09,0,0,1-.13,0Z"/><path class="cls-1" d="M326.54,465.61l-3-1.8a29.06,29.06,0,0,0-3.47-1.93l-2.19-1.05-1.17-.59c-.4-.2-.84-.35-1.28-.53l-2.71-1.09c-.47-.18-.95-.39-1.44-.56l-1.52-.47-3.16-1c-1.08-.3-2.21-.53-3.35-.81a70.66,70.66,0,0,0-7.09-1.3c-1.22-.16-2.46-.23-3.69-.36l-1.86-.16-1.87-.05c-1.25,0-2.5-.12-3.74-.12l-3.72.08c-1.23,0-2.44.16-3.65.23s-2.39.16-3.55.34-2.31.32-3.43.44l-3.27.54-1.57.27-1.51.33-2.87.63c-1.81.51-3.5.89-5,1.32s-2.76.82-3.8,1.18l-3.26,1.18a.05.05,0,0,1-.07,0,0,0,0,0,1,0-.06L252.6,459c1-.41,2.31-.82,3.76-1.34s3.13-.95,4.94-1.5l2.87-.7,1.52-.38,1.57-.3,3.28-.63,3.46-.49c1.17-.19,2.37-.27,3.58-.38s2.44-.26,3.69-.26l3.75-.12c1.26,0,2.52.07,3.79.09l1.89.07,1.88.18c1.25.13,2.51.22,3.74.39,2.45.44,4.88.74,7.17,1.38,1.14.3,2.29.53,3.37.87l3.18,1.05,1.52.51c.49.19,1,.41,1.44.6l2.71,1.17a20.5,20.5,0,0,1,2.44,1.19l2.16,1.17a28.45,28.45,0,0,1,3.4,2.07l2.89,1.93a0,0,0,0,1,0,.06S326.57,465.62,326.54,465.61Z"/><path class="cls-1" d="M326.54,470.17l-1-.18c-.64-.13-1.6-.28-2.8-.54l-2-.41c-.73-.17-1.52-.19-2.36-.3l-2.66-.29c-.47-.05-.94-.12-1.43-.19l-1.52-.08a62.6,62.6,0,0,0-6.67-.15l-3.63.13-3.78.34c-2.57.12-5.18.73-7.86,1.06-1.33.25-2.66.56-4,.83l-2,.43-2,.54c-1.33.36-2.67.67-4,1.06L275,473.66c-1.3.39-2.54.91-3.8,1.34s-2.51.86-3.69,1.38-2.37,1-3.54,1.44-2.26,1-3.36,1.46c-2.2.93-4.18,2-6.06,2.91l-2.63,1.41c-.84.44-1.66.83-2.4,1.25-1.47.85-2.77,1.56-3.82,2.19s-1.87,1.13-2.43,1.47l-.87.52h0a.1.1,0,0,1-.14,0,.11.11,0,0,1,0-.13l3.11-2.27c1-.7,2.26-1.51,3.68-2.46s3.09-1.91,4.9-3,3.8-2.17,6-3.2c1.08-.53,2.18-1.1,3.33-1.63l3.54-1.56c1.19-.56,2.45-1,3.71-1.5s2.53-1,3.85-1.42l4-1.31c1.33-.41,2.7-.74,4.05-1.11l2-.54,2.06-.42c1.37-.27,2.73-.57,4.09-.8,2.74-.34,5.42-.85,8.05-.93,1.31-.08,2.6-.19,3.87-.23l3.7,0a61.37,61.37,0,0,1,6.78.45l1.53.15,1.46.27,2.68.49c.83.17,1.63.26,2.34.47l1.95.55,3.71,1a.11.11,0,0,1,.07.13.11.11,0,0,1-.12.07Z"/><path class="cls-1" d="M326.51,481.16l-.92-.24c-.59-.15-1.49-.4-2.59-.61s-2.46-.45-4-.69l-2.47-.24c-.87,0-1.78-.12-2.73-.15-1.91,0-4,0-6.13.19s-4.42.53-6.75.9-4.68,1.05-7.07,1.7a66.15,66.15,0,0,0-7.08,2.49,60.16,60.16,0,0,0-6.81,3.15c-1.09.57-2.15,1.2-3.21,1.78s-2.08,1.24-3,1.92c-2,1.31-3.77,2.7-5.45,4.07-.8.73-1.62,1.4-2.34,2.12s-1.45,1.38-2.09,2.08-1.23,1.39-1.8,2.05-1.05,1.32-1.53,1.94-.84,1.24-1.24,1.79a16.65,16.65,0,0,0-1,1.59c-.59,1-1,1.76-1.28,2.31l-.43.85,0,0a.14.14,0,0,1-.2.06.16.16,0,0,1-.07-.18s.11-.31.3-.9a24.6,24.6,0,0,1,.95-2.5,16,16,0,0,1,.8-1.73,21.69,21.69,0,0,1,1.06-2,36.51,36.51,0,0,1,3-4.45,45.46,45.46,0,0,1,4.28-4.72,54.88,54.88,0,0,1,5.46-4.56,57.26,57.26,0,0,1,6.4-4.09,62.37,62.37,0,0,1,7.08-3.41,65.61,65.61,0,0,1,7.44-2.49,66.63,66.63,0,0,1,7.45-1.53,57.36,57.36,0,0,1,7.09-.56,51.37,51.37,0,0,1,6.36.28c1,.12,1.92.28,2.81.4l2.5.52c1.55.41,2.9.78,4,1.19a24.1,24.1,0,0,1,2.48,1l.87.37a.14.14,0,0,1,.08.19.14.14,0,0,1-.17.09Z"/><path class="cls-2" d="M400.13,498.12c-9.43-4.22-23.67-13.93-31-26.47-1.45-2.47-.82-4,1.81-5.1,10-4.22,3.37-12.88,15.73-26.57,4.09-4.54,15.8-9.41,14.82-16.74-.92-6.9-7.77-11-15.08-13.18-10.88-3.26-33-4.39-45.43,0-6.29,2.21-12.65,6.66-14,14.83-1.42,8.68,11.55,8.54,17.63,16.67,9.62,12.85,3.63,21.53,14,25.14,1.31.45,2.53.28,1.71,2.55-3.36,9.28-23,25.93-32.46,30.15-11.62,5.2-38.14,10.8-49.82-10.44,13.14,27.64,59,22.07,83.66-14.48,0,0,2-2.81,2.45-3.54a31.77,31.77,0,0,1,2.88,3.51c24.7,36.55,69.7,40.89,82.84,13.25C438.27,508.91,411.74,503.31,400.13,498.12Z"/></svg>