<svg id="Layer_1" data-name="Layer 1" xmlns="http://www.w3.org/2000/svg" viewBox="0 0 720 537.19"><defs><style>.cls-1{fill:#231f20;}.cls-2{fill:#f1637d;}.cls-2,.cls-3,.cls-4{fill-rule:evenodd;}.cls-3{fill:#040404;}.cls-4{fill:#fff;}</style></defs><path class="cls-1" d="M173.25,157.12H132.06v76.31c0,8,2.87,10.86,18.52,11.18,5.42.32,8,2.55,8,6.7,0,4.79-2.56,7-8,7-2.24,0-7-.32-14.05-.64s-12.78-.64-17.57-.64c-3.19,0-7.34.32-12.77.64-5.1.32-8.3.64-9.25.64-4.79,0-7.35-2.24-7.35-6.39,0-3.83,2.56-6.38,7.66-7.34,6.71-1.28,8.62-3.51,8.62-11.18V66.76c0-7.66-1.91-9.9-8.62-11.17-5.1-1-7.66-3.52-7.66-7.35,0-4.15,2.56-6.39,7.35-6.39,1,0,4.15.32,9.25.64,5.43.32,9.58.64,12.77.64,14.7,0,29.38-.32,44.39-1s22.67-1,23.63-1c22,0,34.48,7,34.48,27.46,0,16.28-8.62,22-11.81,22-2.88,0-4.16-1.92-4.16-5.43,0-19.48-7.34-29.69-26.5-29.69-9.89,0-21.71.31-34.8.95-8,.32-12.13,3.83-12.13,14.37v72.16h42.78c7.67,0,12.45-2.55,14.37-8,2.24-5.43,4.79-8.3,8-8.3,3.83,0,5.75,2.55,5.75,7.34,0,1.6-1.28,11.5-1.28,17.88,0,17.24-6.06,22-9.89,22-2.88,0-4.16-1.92-4.16-5.43Q187.61,157.11,173.25,157.12Z"/><path class="cls-1" d="M429,211.72c0,20.76,3.51,31.29,18.84,31.29,6.06,0,8.94,1.92,8.94,6.07,0,6.07-7.67,12.13-17.88,12.13-19.48,0-33.21-14.37-33.21-38.31-1.28,2.23-2.55,4.47-11.81,13.41a109.28,109.28,0,0,1-15,11.49c-10.54,6.71-30.33,13.41-50.77,13.41q-31.61,0-50.77-13.41c-12.45-9.26-18.84-25.22-18.84-48.53V75.7c0-8-4.15-10.86-13.09-13.09C240,61,237.1,58.46,237.1,55c0-4.47,2.55-6.71,7.66-7a56.52,56.52,0,0,0,21.08-4.79c6.38-2.87,10.22-4.15,11.49-4.15,4.15,0,7.34,3.19,7.34,8.3V192.56c0,34.81,16.93,52.05,50.45,52.05,18.21,0,34.17-5.75,47.58-16.92q20.12-17.25,20.12-44.07V75.7c0-8-4.15-10.86-13.09-13.09-5.43-1.6-8.31-4.15-8.31-7.66,0-4.47,2.56-6.71,7.67-7a56.52,56.52,0,0,0,21.07-4.79c6.38-2.87,10.22-4.15,11.49-4.15,4.15,0,7.35,3.19,7.35,8.3Z"/><path class="cls-1" d="M648,232.16c0,15.64-13.09,27.46-29.38,27.46-15,0-24.58-4.47-30.65-16a89.26,89.26,0,0,1-6.07-15.33c-1.27-4.79-2.87-11.81-4.46-21.07-2.56-14.05-5.75-22.35-13.73-32.25s-22.68-14.69-43.11-14.69h-4.15v73.12c0,3.52,1,6.07,2.87,7.67,2.24,1.59,6.07,2.55,11.5,3.51s8.3,3.19,8.3,7.34-2.55,6.39-8,6.39c-2.24,0-7-.32-13.73-.64s-11.18-.64-14.05-.64c-3.2,0-7.35.32-12.77.64-5.11.32-8.3.64-9.26.64-4.79,0-7.35-2.24-7.35-6.39,0-3.83,2.56-6.38,7.67-7.34,6.7-1.28,8.62-3.51,8.62-11.18V68c0-7.67-2.56-10.86-9.26-12.14-4.79-.95-7-3.19-7-7.34,0-4.47,3.83-6.71,11.18-6.71,4.79,0,15.32,1.28,24.27,1.28,3.83,0,10.53-.64,20.43-1.91A164.29,164.29,0,0,1,556.39,39c42.15,0,64.5,21.71,64.5,55.88,0,33.2-20.12,54-51.73,61.3,18.84,6.71,31,22,36.4,46.62,1.28,5.43,3.52,18.52,4.47,23.63,1.92,8,6.39,17.88,14.69,16.28,5.43,0,8.94-3.19,10.54-9.26s4.15-8.94,7-8.94Q648,224.49,648,232.16ZM516.48,147.54h24.58c31.94,0,53.65-16,53.65-47.89,0-30.34-17.56-47.26-47.9-47.26-8.62,0-12.45,0-19.79,2.24-6.71,1.59-10.54,7-10.54,14.68Z"/><path class="cls-1" d="M93.19,410.64c-4.2,0-6.4-1.28-6.4-3.83,0-2.38,1.28-3.66,4-4.2,3.84-.73,5.3-2.56,5.3-6.94V301.8c0-4.38-1.46-6.21-5.3-6.94-2.74-.55-4-1.83-4-4.2,0-2.56,2.2-3.84,6.4-3.84,2.74,0,9.68.73,14.79.73q4.65,0,15.89-1.09a149,149,0,0,1,17.35-1.28c20.45,0,32.14,11,32.14,26.85,0,18.62-14.61,28.3-20.82,31.23l-2.37,1.09c1.46,0,3.47,0,10,2.37a29.13,29.13,0,0,1,8.58,4.39c5.12,3.65,10.05,11.68,10.05,21.91,0,10.6-4.2,19.73-12.42,27.58S148,412.29,135.74,412.29a103.63,103.63,0,0,1-17-1.28,103.12,103.12,0,0,0-11.87-1.1C102.68,409.91,96.11,410.64,93.19,410.64Zm70.49-32a24,24,0,0,0-8.58-19c-5.66-4.93-12.79-7.49-21.55-7.49-8,0-10.78-.54-10.78-3.47,0-3.65,3.11-4.2,10.23-4.75,15.16-.91,25-8.76,25-24.1C158,302.9,146,293,128.43,293c-3.28,0-6,.19-8,.37-4.2.55-9.32,3.65-9.32,9.5v82c0,13.88,7.86,19.54,23.2,19.54C152.54,404.43,163.68,395.67,163.68,378.68Z"/><path class="cls-1" d="M559,301.07c0-4.38-1.09-5.66-4.93-6.39-2.92-.55-4.38-2-4.38-4.2,0-2.38,1.46-3.66,4.2-3.66.55,0,2.37.19,5.3.37,3.1.18,5.47.36,7.3.36s4.2-.18,7.12-.36c3.11-.18,4.93-.37,5.48-.37,2.74,0,4.2,1.28,4.2,3.66,0,2.19-1.46,3.65-4.38,4.2-3.84.73-4.93,2-4.93,6.39v36.34l42.91-34.51c2.2-1.65,3.29-3.47,3.29-5.12,0-2-1.09-3.28-3.47-3.83-2.92-.55-4.93-1.28-4.93-3.84,0-2.19,1.46-3.29,4.2-3.29.91,0,3.47.19,7.67.37s6.94.36,8.58.36c2.74,0,9.32-.73,12.24-.73,2.74,0,4.2,1.1,4.2,3.11a3,3,0,0,1-1.09,2.74c-.55.18-3.11,1.64-4.2,1.64a32.81,32.81,0,0,0-9.14,4.57l-3.83,2.74c-2,1.46-5.48,4.75-6,4.93l-36.71,29c34.52,2.92,34.89,63.55,53.33,63.73,3.84,0,6.39-1.82,7.31-5.48,1.28-4.2,2-5.66,4-5.66,2.56,0,3.84,2,3.66,6.21-.55,10-7.31,17.35-17.72,17.35-12.6,0-21.73-10.41-27-23-7.48-18.45-14.42-42.19-32.32-42.19-1.1,0-2.74.18-4.93.37V396.4c0,4.38,1.09,5.66,4.93,6.39,2.92.55,4.38,2,4.38,4.2,0,2.37-1.46,3.65-4.2,3.65-.55,0-2.37-.18-5.48-.36-2.92-.19-5.29-.37-7.12-.37s-4.2.18-7.3.37c-2.93.18-4.75.36-5.3.36-2.74,0-4.2-1.28-4.2-3.65,0-2.19,1.46-3.65,4.38-4.2,3.84-.73,4.93-2,4.93-6.39Z"/><path class="cls-2" d="M411.75,447.55c-1.21,15.25-3,30.39-8.19,44.9-3.19,8.86-7.5,17-15.2,22.84-13.66,10.32-39.79,10.77-51.61-12.55-5.46-10.76-8.09-22.23-9.6-34.05a158.37,158.37,0,0,1-.94-21.11c2.46-.18,4.94-.23,7.38-.56,14.12-1.89,23.9-10.2,31.6-21.52,1.43-2.11,2.73-4.3,4.06-6.41,1.17.43,1.36,1.28,1.76,2C380.11,436.77,392.6,447.28,411.75,447.55Z"/><path class="cls-3" d="M197.57,345.56a43.22,43.22,0,0,1,44.26-43c23.8.39,42.6,20.09,42.27,44.29-.32,23.61-20.13,42.74-43.88,42.36A43.3,43.3,0,0,1,197.57,345.56Zm56.55.9a11.79,11.79,0,1,0-11.86-11.77A11.74,11.74,0,0,0,254.12,346.46Z"/><path class="cls-3" d="M541.35,346.12a43.27,43.27,0,1,1-43-43.59A43.31,43.31,0,0,1,541.35,346.12Zm-30.23.35a11.8,11.8,0,1,0-11.62-11.68A11.77,11.77,0,0,0,511.12,346.47Z"/><path class="cls-3" d="M411.75,447.55c-19.15-.27-31.64-10.78-40.74-26.5-.4-.68-.59-1.53-1.76-2-1.33,2.11-2.63,4.3-4.06,6.41-7.7,11.32-17.48,19.63-31.6,21.52-2.44.33-4.92.38-7.38.56a66.56,66.56,0,0,1-20.35-3.75c-13.17-4.94-22.31-14.06-27.94-26.82-.56-1.25-2-3.06.22-3.91s2.38,1.4,2.93,2.69c11.46,27,40.25,31.76,58.16,26.53,12.79-3.74,20.6-13.43,26.74-24.67,1-1.82-.34-1.8-1.46-2.18a44.89,44.89,0,0,1-21.92-15.92c-4.36-5.89-6.41-12.45-5.2-19.89,1.14-7,5.28-11.37,12-12.7a97.42,97.42,0,0,1,38.9,0c11.51,2.37,16.46,12.87,11.93,24.78S386.6,411,375,415.36c-2.28.87-2.68,1.37-1.44,3.49,6.26,10.74,13.94,20,26.41,23.54,18.42,5.15,46.06-.21,57.44-25.54.68-1.5.82-4.65,3.24-3.68,2.92,1.17.45,3.54-.26,5-8.77,18.62-24,27.54-44.09,29.13C414.8,447.45,413.28,447.48,411.75,447.55Z"/><path class="cls-4" d="M254.12,346.46A11.79,11.79,0,1,1,266,334.66,11.65,11.65,0,0,1,254.12,346.46Z"/><path class="cls-4" d="M511.12,346.47a11.8,11.8,0,1,1,12.13-11.93A11.69,11.69,0,0,1,511.12,346.47Z"/></svg>