<?xml version="1.0" encoding="utf-8"?>
<!-- Generator: Adobe Illustrator 25.4.1, SVG Export Plug-In . SVG Version: 6.00 Build 0)  -->
<svg version="1.1" id="Layer_1" xmlns="http://www.w3.org/2000/svg" xmlns:xlink="http://www.w3.org/1999/xlink" x="0px" y="0px"
	 viewBox="0 0 1599.3 514.2" style="enable-background:new 0 0 1599.3 514.2;" xml:space="preserve">
<style type="text/css">
	.st0{fill-rule:evenodd;clip-rule:evenodd;}
</style>
<path d="M97.1,219.6V408c0,27.1-16.7,46.5-39.7,46.5c-7.8,0-11.5-2.6-11.5-8.4c0-11,20.9-11,20.9-38.1V219.6H41.2
	c-6.3,0-9.4-3.7-9.4-11s3.1-11,9.4-11h25.6V77.2C66.8,37,89.2,14,124.2,14c13,0,36.5,7.8,53.2,7.8c4.7,0,7.3,2.1,7.3,6.3
	c0,10.4-10.4,23-27.1,23c-5.8,0-12.5-2.6-19.8-7.3s-13-7.3-17.7-7.3c-15.1,0-23,11.5-23,34.4v126.8h46c6.3,0,9.4,3.7,9.4,11
	c0,7.3-3.1,11-9.4,11L97.1,219.6z"/>
<path d="M191,252c0-11.5-3.7-19.3-10.4-23.5c-8.9-5.2-14.1-4.2-14.1-11.5c0-3.6,2.6-6.3,7.3-8.4c8.4-3.4,16.6-7.2,24.5-11.5
	c5.7-3.1,9.9-4.7,12.5-4.7c6.8,0,10.4,5.2,10.4,15.1v99.2c0,29.2,13,43.8,38.6,43.8c15.1,0,31.3-8.4,48.5-24.5V252
	c0-11.5-3.6-19.3-10.4-23.5c-8.9-5.2-14.1-4.2-14.1-11.5c0-3.6,2.6-6.3,7.3-8.4c8.4-3.4,16.6-7.2,24.5-11.5
	c5.7-3.1,9.9-4.7,12.5-4.7c6.8,0,10.4,5.2,10.4,15.1v103.8c0,27.7,4.2,41.8,23.5,41.8c5.7,0,8.4,1.6,8.4,5.2
	c0,6.3-12,15.7-22.5,15.7c-20.4,0-33.4-9.9-38.1-29.8c-21.4,19.8-42.8,29.8-64.2,29.8c-36.5,0-54.8-20.4-54.8-61.1V252z"/>
<path d="M408.6,252c0-11.5-3.6-19.3-10.4-23.5c-8.9-5.2-14.1-4.2-14.1-11.5c0-3.6,2.6-6.3,7.3-8.4c8.4-3.4,16.6-7.2,24.5-11.5
	c5.7-3.1,9.9-4.7,12.5-4.7c6.8,0,10.4,5.2,10.4,15.1v16.2c17.2-20.9,32.4-31.3,45.4-31.3c13.6,0,20.4,6.8,20.4,20.9
	s-4.7,20.9-14.1,20.9c-6.8,0-13-11.5-23-11.5c-11,0-20.4,7.8-28.7,24v83.5c0,14.1,2.6,17.7,11.5,19.8s13,5.7,13,11.5
	s-3.6,8.9-11.5,8.9c-11.5-1.6-44.9-1.6-56.4,0c-7.8,0-11.5-3.1-11.5-8.9s4.2-9.4,13-11.5s11.5-5.7,11.5-19.8L408.6,252z"/>
<path d="M566.2,349.6c-0.8,2.4-1.9,4.6-3.1,6.8c-2.6,5.7-15.1,17.8-29.2,17.8c-7.3,0-11-2.6-11-8.4c0-6.3,16.7-8.9,16.7-38.1V73.5
	c0-11.5-3.6-19.3-10.4-23.5c-8.9-5.2-14.1-4.2-14.1-11.5c0-3.7,2.6-6.3,7.3-8.4c8.4-3.4,16.6-7.2,24.5-11.5
	c5.7-3.1,9.9-4.7,12.5-4.7c6.8,0,10.4,5.2,10.4,15.1v194.1c2.5-3,5.3-5.8,8.3-8.4c3.7-3.6,10.4-7.8,21.4-13.6s22.4-8.9,33.4-8.9
	c45.9,0,75.2,36,75.2,84c0,25-8.3,47.5-24.5,67.8c-16.2,19.8-36.5,29.7-61.1,29.8c-22.4,0-42.8-10.4-50.6-18.8L566.2,349.6z
	 M569.9,251.5V325c0,0,12,32.4,52.7,32.4c33.4,0,55.3-26.6,55.3-68.4c0-41.2-20.9-73-57.9-73C599.1,216,578.7,230.6,569.9,251.5
	L569.9,251.5z"/>
<path d="M1370.5,259.8l53.2-35c3.7-2.6,5.7-4.7,5.7-7.3c0-4.2-11-6.8-11-13c0-5.8,4.2-8.9,12-8.9c6.3,0,16.7,2.1,22.4,2.1
	c4.7,0,14.6-2.1,21.4-2.1c7.8,0,12,3.1,12,8.9c2.6,8.9-15.1,10.4-33.9,22.4l-45.9,29.2c22.4,4.2,38.6,28.7,45.4,51.1
	c7.8,22.4,18.3,43.8,30.8,43.8c8.3,0,13.6-11.5,17.2-11.5s5.7,2.6,5.7,7.3c0,11-9.4,27.1-30.8,27.1c-56.9,0-44.4-98.1-91.3-98.1
	c-4.5,0-9,1.1-13,3.1v51.1c0,14.1,2.6,17.7,11.5,19.8s13,5.7,13,11.5s-3.7,8.9-11.5,8.9c-11.5-1.6-44.9-1.6-56.4,0
	c-7.8,0-11.5-3.1-11.5-8.9s4.2-9.4,13-11.5s11.5-5.7,11.5-19.8V73.5c0-11.5-3.7-19.3-10.4-23.5c-8.9-5.2-14.1-4.2-14.1-11.5
	c0-3.7,2.6-6.3,7.3-8.4c8.4-3.4,16.6-7.2,24.5-11.5c5.7-3.1,9.9-4.7,12.5-4.7c6.8,0,10.4,5.2,10.4,15.1L1370.5,259.8z"/>
<path class="st0" d="M1224,187.1c-0.4,0-0.8,0-1.1,0c-53.6,0.2-96.8,43.9-96.6,97.4c0.1,53.7,43.7,97.3,97.3,97.2
	c53.4-0.1,96.8-43.5,96.9-96.7C1320.6,230.8,1277.7,187.3,1224,187.1z M1252.6,285.7c-14.4-0.1-26.1-11.8-26.1-26.2
	c-0.1-15.3,11.7-26.9,27.1-26.8c14.4,0.1,26.1,11.8,26.2,26.2C1280,274.1,1268.1,285.7,1252.6,285.7z"/>
<path class="st0" d="M1104.6,492.9c-36.5-0.5-60.3-20.6-77.7-50.5c-0.8-1.3-1.1-2.9-3.3-3.7c-2.5,4-5,8.2-7.7,12.2
	c-14.7,21.6-33.4,37.5-60.3,41.1c-4.7,0.6-9.4,0.7-14.1,1.1c-13.3-0.6-26.3-2.5-38.8-7.2c-25.1-9.4-42.5-26.8-53.3-51.1
	c-1-2.4-3.7-5.8,0.4-7.5c4-1.5,4.5,2.7,5.6,5.1c21.8,51.5,76.8,60.6,110.9,50.6c24.4-7.1,39.3-25.6,51-47.1c1.9-3.5-0.7-3.4-2.8-4.2
	c-17-5.9-31.1-15.9-41.8-30.3c-8.3-11.2-12.2-23.8-9.9-37.9c2.2-13.3,10.1-21.7,22.8-24.2c24.5-5,49.7-5,74.2,0
	c22,4.5,31.4,24.6,22.8,47.3s-25.9,36.6-48,45c-4.4,1.6-5.1,2.6-2.8,6.7c11.9,20.5,26.6,38.2,50.4,44.9
	c35.1,9.8,87.8-0.4,109.5-48.7c1.3-2.9,1.6-8.9,6.2-7c5.6,2.2,0.9,6.8-0.5,9.6c-16.7,35.5-45.8,52.5-84.1,55.5
	C1110.5,492.7,1107.5,492.8,1104.6,492.9z"/>
<g>
	<path class="st0" d="M827,187.1c-54.8-0.9-98.6,41.7-99.3,96.6c-0.7,53,42.4,97.1,95.7,97.9c53.3,0.8,97.8-42.1,98.5-95.1
		C922.6,232.2,880.4,188,827,187.1z M854.6,285.7c-0.5,0-1,0-1.5-0.1c-14.1-0.8-25.2-12.5-25.1-26.7c0.1-14.7,12-26.6,26.7-26.5
		c14.7,0.1,26.6,12,26.5,26.7c0,0,0,0,0,0c0,0,0,0,0,0C881.3,273.9,869.6,285.5,854.6,285.7z"/>
</g>
</svg>
