<svg id="Layer_1" data-name="Layer 1" xmlns="http://www.w3.org/2000/svg" viewBox="0 0 1599.32 514.21"><defs><style>.cls-1{fill:#231f20;}.cls-2{fill:#040404;}.cls-2,.cls-3{fill-rule:evenodd;}.cls-3{fill:#fff;}</style></defs><path class="cls-1" d="M97.06,219.62V408c0,27.14-16.7,46.45-39.67,46.45-7.82,0-11.48-2.61-11.48-8.35,0-11,20.88-11,20.88-38.1V219.62H41.21q-9.39,0-9.39-11t9.39-11H66.79V77.15C66.79,37,89.23,14,124.2,14c13,0,36.53,7.83,53.23,7.83,4.69,0,7.3,2.08,7.3,6.26,0,10.44-10.43,23-27.13,23-5.75,0-12.53-2.61-19.84-7.31s-13-7.3-17.74-7.3c-15.14,0-23,11.48-23,34.44V197.7H143q9.41,0,9.4,11t-9.4,11Z"/><path class="cls-1" d="M191,252c0-11.49-3.66-19.31-10.44-23.49-8.87-5.21-14.09-4.17-14.09-11.48,0-3.65,2.61-6.26,7.3-8.35a267,267,0,0,0,24.53-11.48q8.61-4.69,12.53-4.7c6.78,0,10.44,5.22,10.44,15.14v99.16c0,29.22,13,43.83,38.62,43.83,15.13,0,31.31-8.35,48.53-24.52V252c0-11.49-3.65-19.31-10.44-23.49-8.87-5.21-14.09-4.17-14.09-11.48,0-3.65,2.61-6.26,7.31-8.35a268.22,268.22,0,0,0,24.53-11.48q8.61-4.69,12.52-4.7c6.79,0,10.44,5.22,10.44,15.14V311.47c0,27.66,4.18,41.75,23.49,41.75,5.74,0,8.35,1.57,8.35,5.22,0,6.26-12,15.66-22.45,15.66-20.35,0-33.4-9.92-38.09-29.75q-32.1,29.75-64.2,29.75Q191,374.1,191,313Z"/><path class="cls-1" d="M408.61,252c0-11.49-3.65-19.31-10.43-23.49-8.88-5.21-14.1-4.17-14.1-11.48,0-3.65,2.61-6.26,7.31-8.35a268.22,268.22,0,0,0,24.53-11.48q8.61-4.69,12.53-4.7c6.78,0,10.43,5.22,10.43,15.14v16.17q25.85-31.31,45.41-31.31c13.57,0,20.35,6.79,20.35,20.88s-4.7,20.87-14.09,20.87c-6.79,0-13.05-11.48-23-11.48-11,0-20.36,7.83-28.71,24v83.5c0,14.09,2.61,17.74,11.48,19.83s13.05,5.74,13.05,11.48-3.65,8.88-11.48,8.88c-11.48-1.57-44.88-1.57-56.36,0-7.83,0-11.49-3.14-11.49-8.88s4.18-9.39,13.05-11.48,11.48-5.74,11.48-19.83Z"/><path class="cls-1" d="M566.21,349.57a35.33,35.33,0,0,1-3.13,6.78c-2.6,5.74-15.13,17.75-29.22,17.75-7.31,0-11-2.61-11-8.35,0-6.26,16.7-8.87,16.7-38.1V73.49C539.6,62,536,54.18,529.16,50c-8.87-5.22-14.09-4.18-14.09-11.48,0-3.66,2.61-6.27,7.31-8.36A265.57,265.57,0,0,0,546.91,18.7Q555.52,14,559.43,14c6.78,0,10.44,5.22,10.44,15.13V223.28a62.2,62.2,0,0,1,8.35-8.36c3.65-3.65,10.44-7.83,21.4-13.57s22.44-8.87,33.4-8.87c45.92,0,75.15,36,75.15,84,0,25.05-8.35,47.49-24.53,67.84q-24.27,29.75-61.06,29.75c-22.44,0-42.8-10.44-50.62-18.79Zm3.66-98.12V325s12,32.36,52.71,32.36c33.4,0,55.32-26.62,55.32-68.37C677.9,247.8,657,216,620,216,599.09,216,578.74,230.58,569.87,251.45Z"/><path class="cls-1" d="M1420.53,259.81l53.24-35c3.65-2.61,5.74-4.7,5.74-7.31,0-4.17-11-6.78-11-13,0-5.75,4.18-8.87,12-8.87,6.27,0,16.7,2.08,22.44,2.08,4.7,0,14.62-2.08,21.4-2.08,7.83,0,12,3.12,12,8.87,2.6,8.87-15.14,10.43-33.93,22.44l-45.92,29.22c22.44,4.18,38.61,28.71,45.4,51.15,7.83,22.44,18.27,43.83,30.79,43.83,8.35,0,13.57-11.47,17.22-11.47s5.74,2.6,5.74,7.3c0,11-9.39,27.14-30.79,27.14-56.88,0-44.36-98.12-91.33-98.12a28.29,28.29,0,0,0-13,3.14v51.14c0,14.09,2.61,17.74,11.49,19.83s13,5.74,13,11.48-3.65,8.88-11.48,8.88c-11.48-1.57-44.88-1.57-56.37,0-7.82,0-11.47-3.14-11.47-8.88s4.17-9.39,13-11.48,11.49-5.74,11.49-19.83V73.49c0-11.48-3.66-19.31-10.44-23.48-8.88-5.22-14.09-4.18-14.09-11.48,0-3.66,2.61-6.27,7.3-8.36a264.35,264.35,0,0,0,24.53-11.47q8.61-4.71,12.53-4.7c6.78,0,10.43,5.22,10.43,15.13Z"/><path class="cls-2" d="M727.67,283.66c.75-54.87,44.58-97.49,99.33-96.59,53.41.88,95.6,45.09,94.86,99.4-.72,53-45.17,95.93-98.47,95.09S726.94,336.7,727.67,283.66Zm126.91,2c15-.13,26.7-11.77,26.63-26.49a26.62,26.62,0,1,0-26.63,26.49Z"/><path class="cls-2" d="M1370.5,284.92c-.09,53.2-43.56,96.58-96.92,96.72-53.56.15-97.24-43.47-97.29-97.15A97,97,0,0,1,1274,187.07C1327.71,187.27,1370.6,230.78,1370.5,284.92Zm-67.85.77c15.46.05,27.31-11.6,27.22-26.76a26.38,26.38,0,0,0-26.15-26.2c-15.44-.18-27.21,11.43-27.14,26.75A26.22,26.22,0,0,0,1302.65,285.69Z"/><path class="cls-2" d="M1136.13,492.88c-36.52-.52-60.34-20.56-77.7-50.54-.76-1.29-1.13-2.92-3.35-3.73-2.54,4-5,8.21-7.74,12.21-14.69,21.61-33.36,37.45-60.28,41.06-4.66.62-9.38.72-14.07,1.06-13.26-.64-26.29-2.47-38.81-7.16-25.12-9.41-42.55-26.81-53.29-51.14-1-2.39-3.73-5.84.43-7.45,4-1.55,4.54,2.67,5.58,5.13,21.85,51.47,76.76,60.57,110.92,50.59,24.4-7.13,39.29-25.61,51-47.06,1.88-3.45-.66-3.42-2.78-4.16-17-5.88-31.11-15.87-41.81-30.34-8.32-11.24-12.22-23.76-9.91-37.94,2.17-13.34,10.07-21.68,22.83-24.22a186,186,0,0,1,74.21,0c22,4.53,31.38,24.56,22.75,47.27s-25.95,36.62-48,45c-4.36,1.65-5.11,2.62-2.76,6.66,11.94,20.48,26.59,38.24,50.38,44.89,35.12,9.82,87.82-.4,109.54-48.71,1.29-2.86,1.56-8.86,6.17-7,5.58,2.24.86,6.75-.49,9.61-16.72,35.51-45.83,52.51-84.08,55.55C1142,492.7,1139,492.75,1136.13,492.88Z"/><path class="cls-3" d="M854.58,285.67a26.47,26.47,0,1,1,26.63-26.49C881.28,273.9,869.59,285.54,854.58,285.67Z"/><path class="cls-3" d="M1302.65,285.69a26.22,26.22,0,0,1-26.07-26.21c-.07-15.32,11.7-26.93,27.14-26.75a26.38,26.38,0,0,1,26.15,26.2C1330,274.09,1318.11,285.74,1302.65,285.69Z"/></svg>